# xmcd CD database file
#
# Track frame offsets:
#	150
#	20691
#	42700
#	59136
#	86399
#	102907
#
# Disc length: 1541 seconds
#
# Revision: 0
# Processed by: cddbd v1.5.2PL0 Copyright (c) Steve Scherf et al.
# Submitted via: Feurio! 1.68 - http://www.feurio.com
#
DISCID=50060306
DTITLE=Daily Blues - This Is It
DYEAR=1900
DGENRE=
TTITLE0=Stop Down Baby
TTITLE1=Congo Square
TTITLE2=If You Love Me Like You Say
TTITLE3=Tin Pin Allay
TTITLE4=Don't You know that I love You
TTITLE5=Crosscut Saw
EXTD=
EXTT0=
EXTT1=
EXTT2=
EXTT3=
EXTT4=
EXTT5=
PLAYORDER=
